# Made in Blockbench 4.9.0
mtllib crop_hole.mtl

o circle
v 0.1812184335382291 -0.0625 0.4375
v 0.4375 -0.0625 0.18121843353822914
v 0.4375 -0.0625 -0.1812184335382291
v 0.18121843353822917 -0.0625 -0.4375
v -0.18121843353822908 -0.0625 -0.4375
v -0.43749999999999994 -0.0625 -0.1812184335382294
v -0.46875 -0.0625 0.2437184335382292
v -0.2124684335382294 -0.0625 0.5
v 0.12944173824159225 0.125 -0.3125
v -0.1606917382415922 0.125 -0.296875
v -0.29687499999999994 0.125 -0.1450667382415924
v -0.3125 0.140625 0.12944173824159227
v -0.1294417382415924 0.125 0.3125
v 0.12944173824159222 0.109375 0.3125
v 0.3125 0.09375 0.12944173824159222
v 0.3125 0.109375 -0.12944173824159222
v 0.07766504294495535 0.078125 -0.1875
v -0.07766504294495531 0.078125 -0.1875
v 0 0.078125 3.5245175384925626e-18
v -0.18749999999999997 0.078125 -0.07766504294495545
v -0.1875 0.078125 0.07766504294495537
v -0.07766504294495545 0.078125 0.1875
v 0.07766504294495534 0.078125 0.1875
v 0.171875 0.078125 0.07766504294495534
v 0.15625 0.078125 -0.06204004294495534
v -0.16827436500139326 0.06249949162783301 0.40625025418608346
v 0.16827436500139303 0.06249949162783301 0.40625025418608346
v 0.40625025418608346 0.06249949162783301 0.16827436500139303
v 0.40625025418608346 0.06249949162783301 -0.16827436500139303
v 0.16827436500139306 0.06249949162783301 -0.40625025418608346
v -0.168274365001393 0.06249949162783301 -0.40625025418608346
v -0.4062502541860834 0.06249949162783301 -0.16827436500139326
v -0.40625025418608346 0.06249949162783301 0.1682743650013931
vt 0.5935695082943981 0.5163441748788968
vt 0.5935695082943981 0.6715909738594055
vt 0.406126585919969 0.593967574369151
vt 0.5935695082943981 0.6715909738594055
vt 0.48376798653830466 0.7813670381760278
vt 0.406126585919969 0.593967574369151
vt 0.48376798653830466 0.7813670381760278
vt 0.32848518530163306 0.7813670381760278
vt 0.406126585919969 0.593967574369151
vt 0.32848518530163306 0.7813670381760278
vt 0.2186836635455398 0.6715909738594055
vt 0.406126585919969 0.593967574369151
vt 0.2186836635455398 0.6715909738594055
vt 0.2186836635455398 0.5163441748788966
vt 0.406126585919969 0.593967574369151
vt 0.2186836635455398 0.5163441748788966
vt 0.32848518530163284 0.40656811056227427
vt 0.406126585919969 0.593967574369151
vt 0.32848518530163284 0.40656811056227427
vt 0.48376798653830466 0.40656811056227427
vt 0.406126585919969 0.593967574369151
vt 0.48376798653830466 0.40656811056227427
vt 0.5935695082943981 0.5163441748788968
vt 0.406126585919969 0.593967574369151
vt 0.375 0.0625
vt 0.375 0.1875
vt 0 0.1875
vt 0 0.0625
vt 0.375 -0.0625
vt 0.375 0.0625
vt 0 0.0625
vt 0 -0.0625
vt 0.375 -0.1875
vt 0.375 -0.0625
vt 0 -0.0625
vt 0 -0.1875
vt 0.375 -0.3125
vt 0.375 -0.1875
vt 0 -0.1875
vt 0 -0.3125
vt 0.375 -0.4375
vt 0.375 -0.3125
vt 0 -0.3125
vt 0 -0.4375
vt 0.375 -0.5625
vt 0.375 -0.4375
vt 0 -0.4375
vt 0 -0.5625
vt 0.375 -0.6875
vt 0.375 -0.5625
vt 0 -0.5625
vt 0 -0.6875
vt 0.375 -0.8125
vt 0.375 -0.6875
vt 0 -0.6875
vt 0 -0.8125
vt 0.32848518530163306 0.7813670381760278
vt 0.48376798653830466 0.7813670381760278
vt 0.535528920283862 0.906300076513767
vt 0.27672425155607594 0.906300076513767
vt 0.2186836635455398 0.6715909738594055
vt 0.32848518530163306 0.7813670381760278
vt 0.27672425155607594 0.906300076513767
vt 0.09372171529592022 0.7233399693193965
vt 0.2186836635455398 0.5163441748788966
vt 0.2186836635455398 0.6715909738594055
vt 0.09372171529592022 0.7233399693193965
vt 0.09372171529592022 0.46459530435188157
vt 0.32848518530163284 0.40656811056227427
vt 0.2186836635455398 0.5163441748788966
vt 0.09372171529592022 0.46459530435188157
vt 0.2767242515560757 0.28163519715751106
vt 0.48376798653830466 0.40656811056227427
vt 0.32848518530163284 0.40656811056227427
vt 0.2767242515560757 0.28163519715751106
vt 0.535528920283862 0.28163519715751106
vt 0.5935695082943981 0.5163441748788968
vt 0.48376798653830466 0.40656811056227427
vt 0.535528920283862 0.28163519715751106
vt 0.7185314565440177 0.4645953043518818
vt 0.5935695082943981 0.6715909738594055
vt 0.5935695082943981 0.5163441748788968
vt 0.7185314565440177 0.4645953043518818
vt 0.7185314565440177 0.7233399693193963
vt 0.48376798653830466 0.7813670381760278
vt 0.5935695082943981 0.6715909738594055
vt 0.7185314565440177 0.7233399693193963
vt 0.535528920283862 0.906300076513767
vt 0.2767242515560757 0.28163519715751106
vt 0.23790344599163538 0.187935148737286
vt 0.5743497258483021 0.187935148737286
vt 0.535528920283862 0.28163519715751106
vt 0.535528920283862 0.28163519715751106
vt 0.5743497258483021 0.187935148737286
vt 0.812253171839938 0.42578343690888976
vt 0.7185314565440177 0.4645953043518818
vt 0.7185314565440177 0.4645953043518818
vt 0.812253171839938 0.42578343690888976
vt 0.812253171839938 0.7621517118283962
vt 0.7185314565440177 0.7233399693193963
vt 0.7185314565440177 0.7233399693193963
vt 0.812253171839938 0.7621517118283962
vt 0.5743497258483021 1
vt 0.535528920283862 0.906300076513767
vt 0.535528920283862 0.906300076513767
vt 0.5743497258483021 1
vt 0.23790344599163582 1
vt 0.27672425155607594 0.906300076513767
vt 0.27672425155607594 0.906300076513767
vt 0.23790344599163582 1
vt 0 0.7621517118283962
vt 0.09372171529592022 0.7233399693193965
vt 0.09372171529592022 0.7233399693193965
vt 0 0.7621517118283962
vt 0 0.42578343690888976
vt 0.09372171529592022 0.46459530435188157
vt 0.09372171529592022 0.46459530435188157
vt 0 0.42578343690888976
vt 0.23790344599163538 0.187935148737286
vt 0.2767242515560757 0.28163519715751106
vn 0 1 0
vn 0 1 0
vn 0 1 0
vn 0 1 0
vn 0 1 0
vn 0 1 0
vn 0 1 0
vn 0 1 0
vn 0 0.24253469666809252 -0.97014273223692
vn -0.6859945046835709 0.24253469666809277 -0.6859945046835715
vn -0.894427190999916 0.4472135954999581 -1.47529556844735e-16
vn -0.5574657703740412 0.6151941398636321 0.5574657703740408
vn 0 0.24253469666809255 0.9701427322369202
vn 0.6859945046835711 0.24253469666809266 0.6859945046835711
vn 0.97014273223692 0.24253469666809252 0
vn 0.6859945046835711 0.2425346966680926 -0.6859945046835711
vn 0 0.9363291775690447 0.3511234415883917
vn 0.2303420513824594 0.9454549585939253 0.23034205138245964
vn 0.39391929857916774 0.9191450300180579 7.038853301039573e-17
vn 0.31622776601683805 0.894427190999916 -0.3162277660168378
vn 0 0.9363291775690445 -0.35112344158839165
vn -0.19027224346725902 0.9680706699867009 -0.16320432370938104
vn -0.11510322331520029 0.9932701153284941 0.012873460209725185
vn -0.15480629975910526 0.9831746821701872 0.09696676695881662
vn 0 0.8320489060624712 0.554702278632642
vn 0.31622982375208936 0.8944257359554482 0.31622982375208936
vn 0.31623162427200346 0.9486820119567412 0
vn 0.31622982375208936 0.8944257359554482 -0.3162298237520893
vn 0 0.8320489060624713 -0.5547022786326419
vn -0.4263315050776923 0.797798781370578 -0.4263315050776927
vn -0.4961411113472338 0.8682419004120522 -8.183403409493253e-17
vn -0.4526797442852963 0.7682200844989655 0.45267974428529606
usemtl m_772dead0-7cb3-0ec5-50b0-793d3fe2b59e
f 24/1/1 25/2/1 19/3/1
f 25/4/2 17/5/2 19/6/2
f 17/7/3 18/8/3 19/9/3
f 18/10/4 20/11/4 19/12/4
f 20/13/5 21/14/5 19/15/5
f 21/16/6 22/17/6 19/18/6
f 22/19/7 23/20/7 19/21/7
f 23/22/8 24/23/8 19/24/8
f 5/25/9 31/26/9 30/27/9 4/28/9
f 6/29/10 32/30/10 31/31/10 5/32/10
f 7/33/11 33/34/11 32/35/11 6/36/11
f 8/37/12 26/38/12 33/39/12 7/40/12
f 1/41/13 27/42/13 26/43/13 8/44/13
f 2/45/14 28/46/14 27/47/14 1/48/14
f 3/49/15 29/50/15 28/51/15 2/52/15
f 4/53/16 30/54/16 29/55/16 3/56/16
f 18/57/17 17/58/17 9/59/17 10/60/17
f 20/61/18 18/62/18 10/63/18 11/64/18
f 21/65/19 20/66/19 11/67/19 12/68/19
f 22/69/20 21/70/20 12/71/20 13/72/20
f 23/73/21 22/74/21 13/75/21 14/76/21
f 24/77/22 23/78/22 14/79/22 15/80/22
f 25/81/23 24/82/23 15/83/23 16/84/23
f 17/85/24 25/86/24 16/87/24 9/88/24
f 13/89/25 26/90/25 27/91/25 14/92/25
f 14/93/26 27/94/26 28/95/26 15/96/26
f 15/97/27 28/98/27 29/99/27 16/100/27
f 16/101/28 29/102/28 30/103/28 9/104/28
f 9/105/29 30/106/29 31/107/29 10/108/29
f 10/109/30 31/110/30 32/111/30 11/112/30
f 11/113/31 32/114/31 33/115/31 12/116/31
f 12/117/32 33/118/32 26/119/32 13/120/32
o sphere
v 0.3203118929598654 1.3877787807814457e-17 0.24564741236185875
v 0.30297299065537464 0.046875 0.34523763126114754
v 0.3749211945674412 1.3877787807814457e-17 0.41624682212656033
v 0.3993293882814929 -0.09374999999999997 0.44124568619310023
v 0.392260096871932 1.3877787807814457e-17 0.3166566032272715
v 0.42202246561078444 -0.09374999999999997 0.30712959388264616
v 0.32566606798466624 -0.09374999999999997 0.21112153895069347
v 0.23102478674330806 1.3877787807814457e-17 0.2742284403957348
v 0.2066165930292565 -0.09374999999999997 0.24922957632919507
v 0.2136858844388173 1.3877787807814457e-17 0.37381865929502356
v 0.18392351569996487 -0.09374999999999997 0.3833456686396489
v 0.28563408835088394 1.3877787807814457e-17 0.44482785016043636
v 0.28027991332608304 -0.09374999999999997 0.47935372357160144
vt 0.9541623681037938 0.8209694586913032
vt 1.0010230986974014 0.9104847293456515
vt 0.9073016375101868 0.9104847761955175
vt 0.953125 0.8125
vt 0.953125 0.71875
vt 1.05421875 0.71875
vt 1.05421875 0.8125
vt 1.0010230986974014 0.9104847293456515
vt 0.9541623681037938 1
vt 0.9073016375101868 0.9104847761955175
vt 1.0546875 0.8125
vt 1.0546875 0.71875
vt 1.15578125 0.71875
vt 1.15578125 0.8125
vt 0.9541623681037938 1
vt 0.8604409069165795 1
vt 0.9073016375101868 0.9104847761955175
vt 1.15625 0.8125
vt 1.15625 0.71875
vt 1.25 0.71875
vt 1.25 0.8125
vt 0.8604409069165795 1
vt 0.813580176322972 0.9104847293456515
vt 0.9073016375101868 0.9104847761955175
vt 1.25 0.8125
vt 1.25 0.71875
vt 1.35109375 0.71875
vt 1.35109375 0.8125
vt 0.813580176322972 0.9104847293456515
vt 0.8604409069165795 0.8209694586913032
vt 0.9073016375101868 0.9104847761955175
vt 1.3515625 0.8125
vt 1.3515625 0.71875
vt 1.45265625 0.71875
vt 1.45265625 0.8125
vt 0.8604409069165795 0.8209694586913032
vt 0.9541623681037938 0.8209694586913032
vt 0.9073016375101868 0.9104847761955175
vt 0.859375 0.8125
vt 0.859375 0.71875
vt 0.953125 0.71875
vt 0.953125 0.8125
vn 0.4841945474513224 0.8708899131278718 0.08429946281286398
vn 0.944092131417594 0.28839491784186105 0.15974485518592144
vn 0.34523734776336207 0.8708899131278718 -0.3498027057091579
vn 0.6767869748934038 0.28388195741132427 -0.6792425375894462
vn -0.14136661349576954 0.885990492201745 -0.44162917511963323
vn -0.289219668659753 0.3162277660168393 -0.9035219882550408
vn -0.4841945474513224 0.8708899131278718 -0.08429946281286398
vn -0.9440921314175941 0.2883949178418602 -0.1597448551859222
vn -0.34523734776336207 0.8708899131278718 0.3498027057091579
vn -0.6767869748934033 0.2838819574113242 0.6792425375894467
vn 0.14136661349576954 0.885990492201745 0.44162917511963323
vn 0.28921966865974996 0.3162277660168378 0.9035219882550424
usemtl m_772dead0-7cb3-0ec5-50b0-793d3fe2b59e
f 36/121/33 38/122/33 35/123/33
f 36/124/34 37/125/34 39/126/34 38/127/34
f 38/128/35 34/129/35 35/130/35
f 38/131/36 39/132/36 40/133/36 34/134/36
f 34/135/37 41/136/37 35/137/37
f 34/138/38 40/139/38 42/140/38 41/141/38
f 41/142/39 43/143/39 35/144/39
f 41/145/40 42/146/40 44/147/40 43/148/40
f 43/149/41 45/150/41 35/151/41
f 43/152/42 44/153/42 46/154/42 45/155/42
f 45/156/43 36/157/43 35/158/43
f 45/159/44 46/160/44 37/161/44 36/162/44
o sphere
v 0.40604289972684215 1.3877787807814457e-17 -0.2838311959088102
v 0.3162759283138624 0.046874999999999986 -0.33031495734088684
v 0.2269180171463276 1.3877787807814457e-17 -0.2830496112053946
v 0.19573649133137863 -0.09374999999999997 -0.2672884065289849
v 0.3166849885593073 1.3877787807814457e-17 -0.23656584977331796
v 0.3168213419744556 -0.09374999999999997 -0.20531614725079503
v 0.43736077895693937 -0.09374999999999997 -0.268342698062697
v 0.40563383948139725 1.3877787807814457e-17 -0.37758030347637905
v 0.436815365296346 -0.09374999999999997 -0.3933415081527888
v 0.3158668680684175 1.3877787807814457e-17 -0.4240640649084557
v 0.31573051465326923 -0.09374999999999997 -0.4553137674309786
v 0.22650895690088269 1.3877787807814457e-17 -0.3767987187729635
v 0.1951910776707856 -0.09374999999999997 -0.3922872166190767
vt 1.1416623681037938 0.8209694586913032
vt 1.1885230986974014 0.9104847293456515
vt 1.0948016375101868 0.9104847761955175
vt 0.953125 0.6875
vt 0.953125 0.59375
vt 1.05421875 0.59375
vt 1.05421875 0.6875
vt 1.1885230986974014 0.9104847293456515
vt 1.1416623681037938 1
vt 1.0948016375101868 0.9104847761955175
vt 1.0546875 0.6875
vt 1.0546875 0.59375
vt 1.15578125 0.59375
vt 1.15578125 0.6875
vt 1.1416623681037938 1
vt 1.0479409069165795 1
vt 1.0948016375101868 0.9104847761955175
vt 1.15625 0.6875
vt 1.15625 0.59375
vt 1.25 0.59375
vt 1.25 0.6875
vt 1.0479409069165795 1
vt 1.001080176322972 0.9104847293456515
vt 1.0948016375101868 0.9104847761955175
vt 1.25 0.6875
vt 1.25 0.59375
vt 1.35109375 0.59375
vt 1.35109375 0.6875
vt 1.001080176322972 0.9104847293456515
vt 1.0479409069165795 0.8209694586913032
vt 1.0948016375101868 0.9104847761955175
vt 1.3515625 0.6875
vt 1.3515625 0.59375
vt 1.45265625 0.59375
vt 1.45265625 0.6875
vt 1.0479409069165795 0.8209694586913032
vt 1.1416623681037938 0.8209694586913032
vt 1.0948016375101868 0.9104847761955175
vt 0.859375 0.6875
vt 0.859375 0.59375
vt 0.953125 0.59375
vt 0.953125 0.6875
vn -0.22599793513055838 0.8708899131278718 0.43643521000126934
vn -0.4362453553692563 0.28839491784186083 0.8523604644056046
vn 0.22979789717450033 0.8708899131278718 0.4344464128823093
vn 0.4442913533888941 0.28388195741132427 0.8497153803246004
vn 0.4636989907910082 0.885990492201745 -0.0020232813720258798
vn 0.9486742672692647 0.316227766016839 -0.0041393986426678285
vn 0.22599793513055838 0.8708899131278718 -0.43643521000126934
vn 0.4362453553692569 0.28839491784186033 -0.8523604644056045
vn -0.22979789717450033 0.8708899131278718 -0.4344464128823093
vn -0.44429135338889447 0.2838819574113241 -0.8497153803246
vn -0.4636989907910082 0.885990492201745 0.0020232813720258798
vn -0.9486742672692653 0.31622776601683794 0.0041393986426655136
usemtl m_772dead0-7cb3-0ec5-50b0-793d3fe2b59e
f 49/163/45 51/164/45 48/165/45
f 49/166/46 50/167/46 52/168/46 51/169/46
f 51/170/47 47/171/47 48/172/47
f 51/173/48 52/174/48 53/175/48 47/176/48
f 47/177/49 54/178/49 48/179/49
f 47/180/50 53/181/50 55/182/50 54/183/50
f 54/184/51 56/185/51 48/186/51
f 54/187/52 55/188/52 57/189/52 56/190/52
f 56/191/53 58/192/53 48/193/53
f 56/194/54 57/195/54 59/196/54 58/197/54
f 58/198/55 49/199/55 48/200/55
f 58/201/56 59/202/56 50/203/56 49/204/56
o sphere
v -0.3654903691191408 0.031250000000000014 -0.07853748932674429
v -0.4162233581134358 0.07812499999999999 -0.16597325467043922
v -0.5169827079748195 0.031250000000000014 -0.1741220367293867
v -0.5517494292142502 -0.06249999999999998 -0.1775829931376251
v -0.4662497189805244 0.031250000000000014 -0.08668627138569178
v -0.4829251726028873 -0.06249999999999997 -0.060257276957442624
v -0.3473991015020729 -0.062499999999999965 -0.04864753849025674
v -0.3154640082520521 0.031250000000000014 -0.15782447261149174
v -0.28069728701262153 -0.06249999999999996 -0.15436351620325345
v -0.36619699724634713 0.031250000000000014 -0.24526023795518667
v -0.34952154362398424 -0.06249999999999997 -0.27168923238343584
v -0.46695634710773076 0.031250000000000014 -0.2534090200141341
v -0.4850476147247984 -0.06249999999999997 -0.2832989708506216
vt 1.3291623681037938 0.8209694586913032
vt 1.3760230986974014 0.9104847293456515
vt 1.2823016375101868 0.9104847761955175
vt 0.953125 0.5625
vt 0.953125 0.46875
vt 1.05421875 0.46875
vt 1.05421875 0.5625
vt 1.3760230986974014 0.9104847293456515
vt 1.3291623681037938 1
vt 1.2823016375101868 0.9104847761955175
vt 1.0546875 0.5625
vt 1.0546875 0.46875
vt 1.15578125 0.46875
vt 1.15578125 0.5625
vt 1.3291623681037938 1
vt 1.2354409069165795 1
vt 1.2823016375101868 0.9104847761955175
vt 1.15625 0.5625
vt 1.15625 0.46875
vt 1.25 0.46875
vt 1.25 0.5625
vt 1.2354409069165795 1
vt 1.188580176322972 0.9104847293456515
vt 1.2823016375101868 0.9104847761955175
vt 1.25 0.5625
vt 1.25 0.46875
vt 1.35109375 0.46875
vt 1.35109375 0.5625
vt 1.188580176322972 0.9104847293456515
vt 1.2354409069165795 0.8209694586913032
vt 1.2823016375101868 0.9104847761955175
vt 1.3515625 0.5625
vt 1.3515625 0.46875
vt 1.45265625 0.46875
vt 1.45265625 0.5625
vt 1.2354409069165795 0.8209694586913032
vt 1.3291623681037938 0.8209694586913032
vt 1.2823016375101868 0.9104847761955175
vt 0.859375 0.5625
vt 0.859375 0.46875
vt 0.953125 0.46875
vt 0.953125 0.5625
vn -0.4251011926629342 0.8708899131278718 0.246657120733781
vn -0.8258985446894811 0.288394917841861 0.4844790658457633
vn -0.039618306746584626 0.8708899131278718 0.48987870843981535
vn -0.0818402141578571 0.2838819574113244 0.9553602533091436
vn 0.3921668705539692 0.885990492201745 0.24743886794118689
vn 0.8023278591472023 0.31622776601683933 0.50623117884645
vn 0.4251011926629341 0.8708899131278718 -0.246657120733781
vn 0.8258985446894818 0.2883949178418603 -0.4844790658457628
vn 0.039618306746584515 0.8708899131278718 -0.48987870843981535
vn 0.08184021415785638 0.28388195741132416 -0.9553602533091439
vn -0.3921668705539693 0.885990492201745 -0.24743886794118694
vn -0.802327859147201 0.3162277660168377 -0.5062311788464531
usemtl m_772dead0-7cb3-0ec5-50b0-793d3fe2b59e
f 62/205/57 64/206/57 61/207/57
f 62/208/58 63/209/58 65/210/58 64/211/58
f 64/212/59 60/213/59 61/214/59
f 64/215/60 65/216/60 66/217/60 60/218/60
f 60/219/61 67/220/61 61/221/61
f 60/222/62 66/223/62 68/224/62 67/225/62
f 67/226/63 69/227/63 61/228/63
f 67/229/64 68/230/64 70/231/64 69/232/64
f 69/233/65 71/234/65 61/235/65
f 69/236/66 70/237/66 72/238/66 71/239/66
f 71/240/67 62/241/67 61/242/67
f 71/243/68 72/244/68 63/245/68 62/246/68
o cylinder
v -0.34375 0.125 -0.3125
v -0.2347058302572325 -0.0625 -0.14133493948602638
v -0.271053886838155 0.09375 -0.1983899596573509
v -0.14561215313439563 -0.0625 -0.26857389688233135
v -0.2116581020895971 0.09375 -0.2832159312548876
v -0.17258493948602638 -0.0625 -0.42154416974276754
v -0.2296399596573509 0.0625 -0.385196113161845
v -0.29982389688233135 -0.0625 -0.5106378468656043
v -0.3144659312548876 0.0625 -0.4445918979104029
v -0.45279416974276754 -0.0625 -0.4836650605139736
v -0.416446113161845 0.0625 -0.4266100403426491
v -0.5418878468656044 -0.0625 -0.3564261031176688
v -0.47584189791040293 0.0625 -0.3417840687451125
v -0.5149150605139736 -0.0625 -0.2034558302572324
v -0.45786004034264904 0.0625 -0.23980388683815496
v -0.3876761031176688 -0.0625 -0.1143621531343956
v -0.3730340687451125 0.0625 -0.18040810208959707
vt 1.4375 0.1875
vt 1.5625 0.1875
vt 1.5625 0.3125
vt 1.4375 0.3125
vt 1 0.1875
vt 1.0625 0.25
vt 0.9375 0.3125
vt 1.0625 0.3125
vt 1.1875 0.3125
vt 1.1875 0.4375
vt 1.0625 0.4375
vt 1.0625 0.25
vt 1.0625 0.375
vt 0.9375 0.3125
vt 1.1875 0.3125
vt 1.3125 0.3125
vt 1.3125 0.4375
vt 1.1875 0.4375
vt 1.0625 0.375
vt 1 0.4375
vt 0.9375 0.3125
vt 1.3125 0.3125
vt 1.4375 0.3125
vt 1.4375 0.4375
vt 1.3125 0.4375
vt 1 0.4375
vt 0.875 0.4375
vt 0.9375 0.3125
vt 1.4375 0.3125
vt 1.5625 0.3125
vt 1.5625 0.4375
vt 1.4375 0.4375
vt 0.875 0.4375
vt 0.8125 0.375
vt 0.9375 0.3125
vt 1.0625 0.1875
vt 1.1875 0.1875
vt 1.1875 0.3125
vt 1.0625 0.3125
vt 0.8125 0.375
vt 0.8125 0.25
vt 0.9375 0.3125
vt 1.1875 0.1875
vt 1.3125 0.1875
vt 1.3125 0.3125
vt 1.1875 0.3125
vt 0.8125 0.25
vt 0.875 0.1875
vt 0.9375 0.3125
vt 1.3125 0.1875
vt 1.4375 0.1875
vt 1.4375 0.3125
vt 1.3125 0.3125
vt 0.875 0.1875
vt 1 0.1875
vt 0.9375 0.3125
vn 0.7605635794133384 0.37139067635410355 0.5325523515929789
vn 0.19867355306142057 0.9701425001453319 0.13911271949651347
vn 0.8808388322016484 0.4472135954999579 -0.15531565177288684
vn 0.28554246572027653 0.901049305863904 -0.3264592603565745
vn 0.5130223607892083 0.4472135954999578 -0.7326718619752418
vn 0.2565111803946042 0.8944271909999159 -0.36633593098762096
vn -0.15531565177288684 0.4472135954999579 -0.8808388322016484
vn -0.07765782588644342 0.8944271909999159 -0.4404194161008242
vn -0.7326718619752413 0.4472135954999579 -0.5130223607892087
vn -0.36633593098762063 0.894427190999916 -0.25651118039460435
vn -0.8808388322016484 0.4472135954999579 0.15531565177288684
vn -0.4404194161008242 0.8944271909999159 0.07765782588644342
vn -0.5130223607892085 0.447213595499958 0.7326718619752414
vn -0.2565111803946042 0.894427190999916 0.36633593098762063
vn 0.16122828537844708 0.3713906763541038 0.9143710436749228
vn -0.2091100828930847 0.9010493058639041 0.3799777909755044
usemtl m_772dead0-7cb3-0ec5-50b0-793d3fe2b59e
f 74/247/69 76/248/69 77/249/69 75/250/69
f 75/251/70 77/252/70 73/253/70
f 76/254/71 78/255/71 79/256/71 77/257/71
f 77/258/72 79/259/72 73/260/72
f 78/261/73 80/262/73 81/263/73 79/264/73
f 79/265/74 81/266/74 73/267/74
f 80/268/75 82/269/75 83/270/75 81/271/75
f 81/272/76 83/273/76 73/274/76
f 82/275/77 84/276/77 85/277/77 83/278/77
f 83/279/78 85/280/78 73/281/78
f 84/282/79 86/283/79 87/284/79 85/285/79
f 85/286/80 87/287/80 73/288/80
f 86/289/81 88/290/81 89/291/81 87/292/81
f 87/293/82 89/294/82 73/295/82
f 88/296/83 74/297/83 75/298/83 89/299/83
f 89/300/84 75/301/84 73/302/84