# Made in Blockbench 4.8.3
mtllib placeholder_plant.mtl

o cylinder
v 0 -0.125 0
v 0 0.1875 0
v 0.13397459621556132 -0.125 0.49999999999999994
v 0.13397459621556132 0.1875 0.49999999999999994
v 0.3660254037844386 -0.125 0.36602540378443865
v 0.3660254037844386 0.1875 0.36602540378443865
v 0.49999999999999994 -0.125 0.13397459621556132
v 0.49999999999999994 0.1875 0.13397459621556132
v 0.49999999999999994 -0.125 -0.13397459621556138
v 0.49999999999999994 0.1875 -0.13397459621556138
v 0.36602540378443865 -0.125 -0.3660254037844386
v 0.36602540378443865 0.1875 -0.3660254037844386
v 0.1339745962155615 -0.125 -0.4999999999999999
v 0.1339745962155615 0.1875 -0.4999999999999999
v -0.13397459621556113 -0.125 -0.5
v -0.13397459621556113 0.1875 -0.5
v -0.3660254037844386 -0.125 -0.3660254037844387
v -0.3660254037844386 0.1875 -0.3660254037844387
v -0.49999999999999994 -0.125 -0.13397459621556126
v -0.49999999999999994 0.1875 -0.13397459621556126
v -0.5 -0.125 0.1339745962155611
v -0.5 0.1875 0.1339745962155611
v -0.3660254037844387 -0.125 0.36602540378443854
v -0.3660254037844387 0.1875 0.36602540378443854
v -0.1339745962155613 -0.125 0.49999999999999994
v -0.1339745962155613 0.1875 0.49999999999999994
vt 0.21650625 0.96650625
vt 0.15849375 1
vt 0.125 0.875
vt 0.40068125 0.828125
vt 0.46766875 0.828125
vt 0.46766875 0.90625
vt 0.40068125 0.90625
vt 0.36161875 0.53125
vt 0.41963125 0.56474375
vt 0.328125 0.65625
vt 0.25 0.90849375
vt 0.21650625 0.96650625
vt 0.125 0.875
vt 0.26670625 0.921875
vt 0.33369375 0.921875
vt 0.33369375 1
vt 0.26670625 1
vt 0.41963125 0.56474375
vt 0.453125 0.62275625
vt 0.328125 0.65625
vt 0.25 0.84150625
vt 0.25 0.90849375
vt 0.125 0.875
vt 0.33369375 0.921875
vt 0.40068125 0.921875
vt 0.40068125 1
vt 0.33369375 1
vt 0.453125 0.62275625
vt 0.453125 0.68974375
vt 0.328125 0.65625
vt 0.21650625 0.78349375
vt 0.25 0.84150625
vt 0.125 0.875
vt 0.40068125 0.921875
vt 0.46766875 0.921875
vt 0.46766875 1
vt 0.40068125 1
vt 0.453125 0.68974375
vt 0.41963125 0.74775625
vt 0.328125 0.65625
vt 0.15849375 0.75
vt 0.21650625 0.78349375
vt 0.125 0.875
vt 0.45420625 0.734375
vt 0.52119375 0.734375
vt 0.52119375 0.8125
vt 0.45420625 0.8125
vt 0.41963125 0.74775625
vt 0.36161875 0.78125
vt 0.328125 0.65625
vt 0.09150625 0.75
vt 0.15849375 0.75
vt 0.125 0.875
vt 0.52119375 0.734375
vt 0.58818125 0.734375
vt 0.58818125 0.8125
vt 0.52119375 0.8125
vt 0.36161875 0.78125
vt 0.29463125 0.78125
vt 0.328125 0.65625
vt 0.03349375 0.78349375
vt 0.09150625 0.75
vt 0.125 0.875
vt 0.58818125 0.734375
vt 0.6551687500000001 0.734375
vt 0.6551687500000001 0.8125
vt 0.58818125 0.8125
vt 0.29463125 0.78125
vt 0.23661875 0.74775625
vt 0.328125 0.65625
vt 0 0.84150625
vt 0.03349375 0.78349375
vt 0.125 0.875
vt 0.001081249999999992 0.5
vt 0.06806875 0.5
vt 0.06806875 0.578125
vt 0.001081249999999992 0.578125
vt 0.23661875 0.74775625
vt 0.203125 0.68974375
vt 0.328125 0.65625
vt 0 0.90849375
vt 0 0.84150625
vt 0.125 0.875
vt 0.06806875 0.5
vt 0.13505625 0.5
vt 0.13505625 0.578125
vt 0.06806875 0.578125
vt 0.203125 0.68974375
vt 0.203125 0.62275625
vt 0.328125 0.65625
vt 0.03349375 0.96650625
vt 0 0.90849375
vt 0.125 0.875
vt 0.13505625 0.5
vt 0.20204375000000002 0.5
vt 0.20204375000000002 0.578125
vt 0.13505625 0.578125
vt 0.203125 0.62275625
vt 0.23661875 0.56474375
vt 0.328125 0.65625
vt 0.09150625 1
vt 0.03349375 0.96650625
vt 0.125 0.875
vt 0.26670625 0.828125
vt 0.33369375 0.828125
vt 0.33369375 0.90625
vt 0.26670625 0.90625
vt 0.23661875 0.56474375
vt 0.29463125 0.53125
vt 0.328125 0.65625
vt 0.15849375 1
vt 0.09150625 1
vt 0.125 0.875
vt 0.33369375 0.828125
vt 0.40068125 0.828125
vt 0.40068125 0.90625
vt 0.33369375 0.90625
vt 0.29463125 0.53125
vt 0.36161875 0.53125
vt 0.328125 0.65625
vn 0 -1 0
vn 0.49999999999999983 0 0.8660254037844387
vn 0 1 0
vn 0 -1 0
vn 0.8660254037844388 0 0.5
vn 0 1 0
vn 0 -1 0
vn 1 0 0
vn 0 1 0
vn 0 -1 0
vn 0.8660254037844387 0 -0.49999999999999994
vn 0 1 0
vn 0 -1 0
vn 0.5000000000000001 0 -0.8660254037844386
vn 0 1 0
vn 0 -1 0
vn 4.143408735633879e-16 0 -1
vn 0 1 0
vn 0 -1 0
vn -0.4999999999999996 0 -0.8660254037844389
vn 0 1 0
vn 0 -1 0
vn -0.8660254037844388 0 -0.4999999999999998
vn 0 1 0
vn 0 -1 0
vn -1 0 -2.0717043678169412e-16
vn 0 1 0
vn 0 -1 0
vn -0.8660254037844389 0 0.4999999999999996
vn 0 1 0
vn 0 -1 0
vn -0.4999999999999999 0 0.8660254037844386
vn 0 1 0
vn 0 -1 0
vn 0 0 1
vn 0 1 0
usemtl m_1cb084d6-9532-5feb-9919-b73d6d496677
f 5/1/1 3/2/1 1/3/1
f 3/4/2 5/5/2 6/6/2 4/7/2
f 4/8/3 6/9/3 2/10/3
f 7/11/4 5/12/4 1/13/4
f 5/14/5 7/15/5 8/16/5 6/17/5
f 6/18/6 8/19/6 2/20/6
f 9/21/7 7/22/7 1/23/7
f 7/24/8 9/25/8 10/26/8 8/27/8
f 8/28/9 10/29/9 2/30/9
f 11/31/10 9/32/10 1/33/10
f 9/34/11 11/35/11 12/36/11 10/37/11
f 10/38/12 12/39/12 2/40/12
f 13/41/13 11/42/13 1/43/13
f 11/44/14 13/45/14 14/46/14 12/47/14
f 12/48/15 14/49/15 2/50/15
f 15/51/16 13/52/16 1/53/16
f 13/54/17 15/55/17 16/56/17 14/57/17
f 14/58/18 16/59/18 2/60/18
f 17/61/19 15/62/19 1/63/19
f 15/64/20 17/65/20 18/66/20 16/67/20
f 16/68/21 18/69/21 2/70/21
f 19/71/22 17/72/22 1/73/22
f 17/74/23 19/75/23 20/76/23 18/77/23
f 18/78/24 20/79/24 2/80/24
f 21/81/25 19/82/25 1/83/25
f 19/84/26 21/85/26 22/86/26 20/87/26
f 20/88/27 22/89/27 2/90/27
f 23/91/28 21/92/28 1/93/28
f 21/94/29 23/95/29 24/96/29 22/97/29
f 22/98/30 24/99/30 2/100/30
f 25/101/31 23/102/31 1/103/31
f 23/104/32 25/105/32 26/106/32 24/107/32
f 24/108/33 26/109/33 2/110/33
f 3/111/34 25/112/34 1/113/34
f 25/114/35 3/115/35 4/116/35 26/117/35
f 26/118/36 4/119/36 2/120/36
o cylinder
v 0 0.125 0
v 0 1.125 0
v 0.07766504294495533 0.125 0.1875
v 0.07766504294495533 0.9375 0.1875
v 0.1875 0.125 0.07766504294495534
v 0.1875 0.9375 0.07766504294495534
v 0.1875 0.125 -0.07766504294495533
v 0.1875 0.9375 -0.07766504294495533
v 0.07766504294495535 0.125 -0.1875
v 0.07766504294495535 0.9375 -0.1875
v -0.07766504294495531 0.125 -0.18750000000000003
v -0.07766504294495531 0.9375 -0.18750000000000003
v -0.18749999999999997 0.125 -0.07766504294495545
v -0.18749999999999997 0.9375 -0.07766504294495545
v -0.1875 0.125 0.07766504294495537
v -0.1875 0.9375 0.07766504294495537
v -0.07766504294495545 0.125 0.18749999999999997
v -0.07766504294495545 0.9375 0.18749999999999997
vt 0.09375 0.7069156249999999
vt 0.06629062499999999 0.734375
vt 0.046875 0.6875
vt 0 0.28125
vt 0.03125 0.28125
vt 0.03125 0.484375
vt 0 0.484375
vt 0.5194156249999999 0.484375
vt 0.546875 0.5118343750000001
vt 0.5 0.53125
vt 0.09375 0.6680843750000001
vt 0.09375 0.7069156249999999
vt 0.046875 0.6875
vt 0.21875 0.328125
vt 0.25 0.328125
vt 0.25 0.53125
vt 0.21875 0.53125
vt 0.546875 0.5118343750000001
vt 0.546875 0.5506656249999999
vt 0.5 0.53125
vt 0.06629062499999999 0.640625
vt 0.09375 0.6680843750000001
vt 0.046875 0.6875
vt 0.359375 0.3125
vt 0.390625 0.3125
vt 0.390625 0.515625
vt 0.359375 0.515625
vt 0.546875 0.5506656249999999
vt 0.5194156249999999 0.578125
vt 0.5 0.53125
vt 0.027459375 0.640625
vt 0.06629062499999999 0.640625
vt 0.046875 0.6875
vt 0.3125 0.3125
vt 0.34375 0.3125
vt 0.34375 0.515625
vt 0.3125 0.515625
vt 0.5194156249999999 0.578125
vt 0.480584375 0.578125
vt 0.5 0.53125
vt 0 0.6680843750000001
vt 0.027459375 0.640625
vt 0.046875 0.6875
vt 0.046875 0.28125
vt 0.078125 0.28125
vt 0.078125 0.484375
vt 0.046875 0.484375
vt 0.480584375 0.578125
vt 0.453125 0.5506656249999999
vt 0.5 0.53125
vt 0 0.7069156249999999
vt 0 0.6680843750000001
vt 0.046875 0.6875
vt 0.40625 0.328125
vt 0.4375 0.328125
vt 0.4375 0.53125
vt 0.40625 0.53125
vt 0.453125 0.5506656249999999
vt 0.453125 0.5118343750000001
vt 0.5 0.53125
vt 0.027459375 0.734375
vt 0 0.7069156249999999
vt 0.046875 0.6875
vt 0.09375 0.28125
vt 0.125 0.28125
vt 0.125 0.484375
vt 0.09375 0.484375
vt 0.453125 0.5118343750000001
vt 0.480584375 0.484375
vt 0.5 0.53125
vt 0.06629062499999999 0.734375
vt 0.027459375 0.734375
vt 0.046875 0.6875
vt 0.265625 0.3125
vt 0.296875 0.3125
vt 0.296875 0.515625
vt 0.265625 0.515625
vt 0.480584375 0.484375
vt 0.5194156249999999 0.484375
vt 0.5 0.53125
vn 0 -1 0
vn 0.7071067811865475 0 0.7071067811865476
vn 0.5 0.7071067811865476 0.5000000000000001
vn 0 -1 0
vn 1 0 0
vn 0.7071067811865476 0.7071067811865476 0
vn 0 -1 0
vn 0.7071067811865476 0 -0.7071067811865475
vn 0.5000000000000001 0.7071067811865476 -0.4999999999999999
vn 0 -1 0
vn 1.786876988872621e-16 0 -1
vn 1.2635128359780293e-16 0.7071067811865476 -0.7071067811865476
vn 0 -1 0
vn -0.7071067811865472 0 -0.7071067811865478
vn -0.4999999999999997 0.7071067811865477 -0.5000000000000002
vn 0 -1 0
vn -1 0 -1.786876988872619e-16
vn -0.7071067811865476 0.7071067811865476 -1.263512835978028e-16
vn 0 -1 0
vn -0.7071067811865477 0 0.7071067811865474
vn -0.5000000000000001 0.7071067811865477 0.49999999999999983
vn 0 -1 0
vn -1.7868769888726197e-16 0 1
vn -1.2635128359780286e-16 0.7071067811865476 0.7071067811865476
usemtl m_1cb084d6-9532-5feb-9919-b73d6d496677
f 31/121/37 29/122/37 27/123/37
f 29/124/38 31/125/38 32/126/38 30/127/38
f 30/128/39 32/129/39 28/130/39
f 33/131/40 31/132/40 27/133/40
f 31/134/41 33/135/41 34/136/41 32/137/41
f 32/138/42 34/139/42 28/140/42
f 35/141/43 33/142/43 27/143/43
f 33/144/44 35/145/44 36/146/44 34/147/44
f 34/148/45 36/149/45 28/150/45
f 37/151/46 35/152/46 27/153/46
f 35/154/47 37/155/47 38/156/47 36/157/47
f 36/158/48 38/159/48 28/160/48
f 39/161/49 37/162/49 27/163/49
f 37/164/50 39/165/50 40/166/50 38/167/50
f 38/168/51 40/169/51 28/170/51
f 41/171/52 39/172/52 27/173/52
f 39/174/53 41/175/53 42/176/53 40/177/53
f 40/178/54 42/179/54 28/180/54
f 43/181/55 41/182/55 27/183/55
f 41/184/56 43/185/56 44/186/56 42/187/56
f 42/188/57 44/189/57 28/190/57
f 29/191/58 43/192/58 27/193/58
f 43/194/59 29/195/59 30/196/59 44/197/59
f 44/198/60 30/199/60 28/200/60